<svg width="200" height="200" viewBox="0 0 200 200" fill="none" xmlns="http://www.w3.org/2000/svg">
<rect width="200" height="200" rx="100" fill="#F5E0BE"/>
<ellipse cx="99.9354" cy="100.468" rx="85.991" ry="87.3747" fill="#041F5D"/>
<ellipse cx="100" cy="100.467" rx="68.1085" ry="68.8043" fill="#F5E0BE"/>
<ellipse cx="100" cy="100.534" rx="53.1311" ry="54.843" fill="#041F5D"/>
<path d="M76.5391 64.6625C76.5391 64.6625 91.1556 56.7801 89.6062 64.6625C88.0568 72.5449 81.9238 125.184 84.706 131.012C87.4882 136.84 71.53 138.009 71.53 138.009L76.5391 64.6625Z" fill="#F5E0BE"/>
<path d="M133.103 83.1733C134.208 85.5684 134.461 88.3058 133.967 90.8967C131.392 104.392 115.913 106.167 93.4749 107.943C85.4313 108.58 77.8687 103.915 74.8676 96.4248C70.142 84.6308 78.5825 71.5188 91.2849 71.2388C112.471 70.7718 128.025 72.162 133.103 83.1733Z" fill="#F5E0BE"/>
<path d="M121.744 88.8112C121.744 94.4004 113.564 98.9314 103.474 98.9314C93.3838 98.9314 85.2041 94.4004 85.2041 88.8112C85.2041 83.2219 93.3838 78.6909 103.474 78.6909C113.564 78.6909 121.744 83.2219 121.744 88.8112Z" fill="#041F5D"/>
</svg>
