<svg width="100" height="100" viewBox="0 0 100 100" fill="none" xmlns="http://www.w3.org/2000/svg">
<rect width="100" height="100" rx="50" fill="#F5E0BE"/>
<ellipse cx="49.9676" cy="50.2338" rx="42.9955" ry="43.6874" fill="#041F5D"/>
<ellipse cx="50" cy="50.2337" rx="34.0542" ry="34.4021" fill="#F5E0BE"/>
<ellipse cx="50" cy="50.2672" rx="26.5655" ry="27.4215" fill="#041F5D"/>
<path d="M38.2695 32.3312C38.2695 32.3312 45.5778 28.39 44.8031 32.3312C44.0284 36.2725 40.9619 62.5918 42.353 65.5059C43.7441 68.4199 35.765 69.0046 35.765 69.0046L38.2695 32.3312Z" fill="#F5E0BE"/>
<path d="M66.1781 40.8739C67.1218 42.47 67.3082 44.4489 66.7979 46.2316C65.0701 52.2673 57.5069 53.1191 46.7375 53.9716C42.7156 54.29 38.9343 51.9574 37.4338 48.2124C35.071 42.3154 39.2912 35.7594 45.6424 35.6194C55.7601 35.3964 63.3085 36.0205 66.1781 40.8739Z" fill="#F5E0BE"/>
<path d="M60.8719 44.4058C60.8719 47.2005 56.7821 49.4659 51.737 49.4659C46.6919 49.4659 42.6021 47.2005 42.6021 44.4058C42.6021 41.6112 46.6919 39.3457 51.737 39.3457C56.7821 39.3457 60.8719 41.6112 60.8719 44.4058Z" fill="#041F5D"/>
</svg>
