<?xml version="1.0" encoding="UTF-8"?>
<svg xmlns="http://www.w3.org/2000/svg" xmlns:xlink="http://www.w3.org/1999/xlink" width="30px" height="30px" viewBox="0 0 30 30" version="1.1">
<g id="surface1">
<path style=" stroke:none;fill-rule:nonzero;fill:rgb(0%,0%,0%);fill-opacity:1;" d="M 23.550781 5.625 L 6.449219 5.625 C 4.441406 5.628906 2.8125 7.261719 2.8125 9.273438 L 2.8125 19.789062 C 2.8125 21.800781 4.441406 23.433594 6.449219 23.4375 L 23.550781 23.4375 C 25.558594 23.433594 27.1875 21.800781 27.1875 19.789062 L 27.1875 9.273438 C 27.1875 7.261719 25.558594 5.628906 23.550781 5.625 Z M 23.550781 7.5 L 23.699219 7.5 L 15 13.835938 L 6.300781 7.5 Z M 25.3125 19.789062 C 25.3125 20.765625 24.523438 21.558594 23.550781 21.5625 L 6.449219 21.5625 C 5.476562 21.558594 4.6875 20.765625 4.6875 19.789062 L 4.6875 9.273438 C 4.691406 9.082031 4.722656 8.898438 4.78125 8.71875 L 14.457031 15.757812 C 14.785156 16 15.234375 16 15.5625 15.757812 L 25.226562 8.71875 C 25.289062 8.898438 25.320312 9.082031 25.320312 9.273438 Z M 25.3125 19.789062 "/>
</g>
</svg>
