<?xml version="1.0" encoding="UTF-8"?>
<svg xmlns="http://www.w3.org/2000/svg" xmlns:xlink="http://www.w3.org/1999/xlink" width="30px" height="30px" viewBox="0 0 30 30" version="1.1">
<g id="surface1">
<path style="fill:none;stroke-width:1;stroke-linecap:round;stroke-linejoin:round;stroke:rgb(27.450982%,26.666668%,33.333334%);stroke-opacity:1;stroke-miterlimit:4;" d="M 4 12 C 4 12 5.6 7 12 7 M 12 7 C 18.4 7 20 12 20 12 M 12 7 L 12 4 M 18 5 L 16 7.5 M 6 5 L 8 7.5 M 15 13 C 15 14.65625 13.65625 16 12 16 C 10.34375 16 9 14.65625 9 13 C 9 11.34375 10.34375 10 12 10 C 13.65625 10 15 11.34375 15 13 Z M 15 13 " transform="matrix(1.25,0,0,1.25,0,0)"/>
</g>
</svg>
