<?xml version="1.0" encoding="UTF-8"?>
<svg xmlns="http://www.w3.org/2000/svg" xmlns:xlink="http://www.w3.org/1999/xlink" width="30px" height="30px" viewBox="0 0 30 30" version="1.1">
<g id="surface1">
<path style="fill:none;stroke-width:1.5;stroke-linecap:round;stroke-linejoin:miter;stroke:rgb(10.980392%,15.294118%,29.803923%);stroke-opacity:1;stroke-miterlimit:4;" d="M 22 12.203125 L 22 13.725 C 22 17.625 22 19.575 20.828125 20.7875 C 19.65625 22 17.771875 22 14 22 L 10 22 C 6.228125 22 4.34375 22 3.171875 20.7875 C 2 19.575 2 17.625 2 13.725 L 2 12.203125 C 2 9.915625 2 8.771875 2.51875 7.821875 C 3.0375 6.875 3.9875 6.284375 5.884375 5.109375 L 7.884375 3.865625 C 9.890625 2.621875 10.890625 2 12 2 C 13.109375 2 14.109375 2.621875 16.115625 3.865625 L 18.115625 5.109375 C 20.0125 6.284375 20.9625 6.875 21.48125 7.821875 " transform="matrix(1.25,0,0,1.25,0,0)"/>
<path style="fill:none;stroke-width:1.5;stroke-linecap:round;stroke-linejoin:miter;stroke:rgb(10.980392%,15.294118%,29.803923%);stroke-opacity:1;stroke-miterlimit:4;" d="M 15 18 L 9 18 " transform="matrix(1.25,0,0,1.25,0,0)"/>
</g>
</svg>
