<?xml version="1.0" encoding="UTF-8"?>
<svg xmlns="http://www.w3.org/2000/svg" xmlns:xlink="http://www.w3.org/1999/xlink" width="30px" height="30px" viewBox="0 0 30 30" version="1.1">
<g id="surface1">
<path style=" stroke:none;fill-rule:nonzero;fill:rgb(30.19608%,30.19608%,30.19608%);fill-opacity:1;" d="M 7.5 20.625 L 3.75 20.625 C 2.714844 20.625 1.875 21.464844 1.875 22.5 L 1.875 26.25 C 1.875 27.285156 2.714844 28.125 3.75 28.125 L 7.5 28.125 C 8.535156 28.125 9.375 27.285156 9.375 26.25 L 9.375 22.5 C 9.375 21.464844 8.535156 20.625 7.5 20.625 Z M 7.5 26.25 L 3.75 26.25 L 3.75 22.5 L 7.5 22.5 Z M 7.5 26.25 "/>
<path style=" stroke:none;fill-rule:nonzero;fill:rgb(30.19608%,30.19608%,30.19608%);fill-opacity:1;" d="M 16.875 11.25 L 13.125 11.25 C 12.089844 11.25 11.25 12.089844 11.25 13.125 L 11.25 26.25 C 11.25 27.285156 12.089844 28.125 13.125 28.125 L 16.875 28.125 C 17.910156 28.125 18.75 27.285156 18.75 26.25 L 18.75 13.125 C 18.75 12.089844 17.910156 11.25 16.875 11.25 Z M 16.875 26.25 L 13.125 26.25 L 13.125 13.125 L 16.875 13.125 Z M 16.875 26.25 "/>
<path style=" stroke:none;fill-rule:nonzero;fill:rgb(30.19608%,30.19608%,30.19608%);fill-opacity:1;" d="M 26.25 1.875 L 22.5 1.875 C 21.464844 1.875 20.625 2.714844 20.625 3.75 L 20.625 26.25 C 20.625 27.285156 21.464844 28.125 22.5 28.125 L 26.25 28.125 C 27.285156 28.125 28.125 27.285156 28.125 26.25 L 28.125 3.75 C 28.125 2.714844 27.285156 1.875 26.25 1.875 Z M 26.25 26.25 L 22.5 26.25 L 22.5 3.75 L 26.25 3.75 Z M 26.25 26.25 "/>
</g>
</svg>
