<?xml version="1.0" encoding="UTF-8"?>
<svg xmlns="http://www.w3.org/2000/svg" xmlns:xlink="http://www.w3.org/1999/xlink" width="30px" height="30px" viewBox="0 0 30 30" version="1.1">
<g id="surface1">
<path style="fill:none;stroke-width:2;stroke-linecap:round;stroke-linejoin:round;stroke:rgb(0%,0%,0%);stroke-opacity:1;stroke-miterlimit:4;" d="M 7 10.028125 C 7.471875 10 8.053125 10 8.8 10 L 15.2 10 C 15.946875 10 16.528125 10 17 10.028125 M 7 10.028125 C 6.4125 10.065625 5.99375 10.146875 5.6375 10.328125 C 5.075 10.615625 4.615625 11.075 4.328125 11.6375 C 4 12.28125 4 13.11875 4 14.8 L 4 16.2 C 4 17.88125 4 18.71875 4.328125 19.3625 C 4.615625 19.925 5.075 20.384375 5.6375 20.671875 C 6.28125 21 7.11875 21 8.8 21 L 15.2 21 C 16.88125 21 17.71875 21 18.3625 20.671875 C 18.925 20.384375 19.384375 19.925 19.671875 19.3625 C 20 18.71875 20 17.88125 20 16.2 L 20 14.8 C 20 13.11875 20 12.28125 19.671875 11.6375 C 19.384375 11.075 18.925 10.615625 18.3625 10.328125 C 18.00625 10.146875 17.5875 10.065625 17 10.028125 M 7 10.028125 L 7 8 C 7 5.2375 9.2375 3 12 3 C 14.7625 3 17 5.2375 17 8 L 17 10.028125 " transform="matrix(1.25,0,0,1.25,0,0)"/>
</g>
</svg>
