<?xml version="1.0" encoding="UTF-8"?>
<svg xmlns="http://www.w3.org/2000/svg" xmlns:xlink="http://www.w3.org/1999/xlink" width="30px" height="30px" viewBox="0 0 30 30" version="1.1">
<g id="surface1">
<path style="fill:none;stroke-width:1.5;stroke-linecap:butt;stroke-linejoin:miter;stroke:rgb(10.980392%,15.294118%,29.803923%);stroke-opacity:1;stroke-miterlimit:4;" d="M 2 16 C 2 13.171875 2 11.75625 2.878125 10.878125 C 3.75625 10 5.171875 10 8 10 L 16 10 C 18.828125 10 20.24375 10 21.121875 10.878125 C 22 11.75625 22 13.171875 22 16 C 22 18.828125 22 20.24375 21.121875 21.121875 C 20.24375 22 18.828125 22 16 22 L 8 22 C 5.171875 22 3.75625 22 2.878125 21.121875 C 2 20.24375 2 18.828125 2 16 Z M 2 16 " transform="matrix(1.25,0,0,1.25,0,0)"/>
<path style="fill:none;stroke-width:1.5;stroke-linecap:round;stroke-linejoin:miter;stroke:rgb(10.980392%,15.294118%,29.803923%);stroke-opacity:1;stroke-miterlimit:4;" d="M 6 10 L 6 8 C 6 4.6875 8.6875 2 12 2 C 15.3125 2 18 4.6875 18 8 L 18 10 " transform="matrix(1.25,0,0,1.25,0,0)"/>
</g>
</svg>
