<?xml version="1.0" encoding="UTF-8"?>
<svg xmlns="http://www.w3.org/2000/svg" xmlns:xlink="http://www.w3.org/1999/xlink" width="30px" height="30px" viewBox="0 0 30 30" version="1.1">
<g id="surface1">
<path style=" stroke:none;fill-rule:nonzero;fill:rgb(0%,0%,0%);fill-opacity:1;" d="M 15 1.875 C 22.25 1.875 28.125 7.75 28.125 15 C 28.125 22.25 22.25 28.125 15 28.125 C 7.75 28.125 1.875 22.25 1.875 15 C 1.875 7.75 7.75 1.875 15 1.875 Z M 13.363281 17.589844 L 10.449219 14.671875 C 10.011719 14.230469 9.296875 14.230469 8.859375 14.671875 C 8.417969 15.113281 8.417969 15.824219 8.859375 16.265625 L 12.570312 19.976562 C 12.78125 20.1875 13.066406 20.308594 13.367188 20.308594 C 13.664062 20.308594 13.953125 20.1875 14.160156 19.976562 L 21.847656 12.285156 C 22.136719 12.003906 22.25 11.585938 22.148438 11.195312 C 22.046875 10.804688 21.742188 10.5 21.351562 10.398438 C 20.960938 10.292969 20.542969 10.40625 20.257812 10.695312 Z M 13.363281 17.589844 "/>
</g>
</svg>
