<?xml version="1.0" encoding="UTF-8"?>
<svg xmlns="http://www.w3.org/2000/svg" xmlns:xlink="http://www.w3.org/1999/xlink" width="30px" height="30px" viewBox="0 0 30 30" version="1.1">
<g id="surface1">
<path style=" stroke:none;fill-rule:evenodd;fill:rgb(0%,0%,0%);fill-opacity:1;" d="M 16.308594 2.828125 C 16.695312 3.050781 17.015625 3.371094 17.238281 3.761719 L 27.929688 22.472656 C 28.613281 23.671875 28.199219 25.195312 27 25.882812 C 26.621094 26.097656 26.195312 26.210938 25.757812 26.210938 L 4.375 26.210938 C 2.996094 26.210938 1.875 25.09375 1.875 23.710938 C 1.875 23.277344 1.988281 22.847656 2.203125 22.472656 L 12.894531 3.761719 C 13.582031 2.5625 15.109375 2.144531 16.308594 2.828125 Z M 15 18.4375 C 14.105469 18.4375 13.4375 19.097656 13.4375 19.976562 C 13.4375 20.898438 14.085938 21.558594 15 21.558594 C 15.894531 21.558594 16.5625 20.898438 16.5625 19.996094 C 16.5625 19.097656 15.894531 18.4375 15 18.4375 Z M 16.25 8.75 L 13.75 8.75 L 13.75 16.25 L 16.25 16.25 Z M 16.25 8.75 "/>
</g>
</svg>
